<mxfile host="app.diagrams.net" agent="Mozilla/5.0 (Windows NT 10.0; Win64; x64) AppleWebKit/537.36 (KHTML, like Gecko) Chrome/131.0.0.0 Safari/537.36" version="25.0.3" pages="2">
  <diagram name="全体のネットワーク" id="1-IGi7M5rVzxhOlYdT8d">
    <mxGraphModel dx="1961" dy="1873" grid="1" gridSize="10" guides="1" tooltips="1" connect="1" arrows="1" fold="1" page="1" pageScale="1" pageWidth="827" pageHeight="1169" math="0" shadow="0">
      <root>
        <mxCell id="0" />
        <mxCell id="1" parent="0" />
        <mxCell id="otjd4q_MsGb5rQ5jIEgQ-1" value="s_CurrentKF" style="text;html=1;align=center;verticalAlign=middle;whiteSpace=wrap;rounded=0;" parent="1" vertex="1">
          <mxGeometry x="-560" y="400" width="80" height="20" as="geometry" />
        </mxCell>
        <mxCell id="jOcuIUpdUd1TaXLq8vQ0-2" style="edgeStyle=orthogonalEdgeStyle;rounded=0;orthogonalLoop=1;jettySize=auto;html=1;exitX=0.5;exitY=1;exitDx=0;exitDy=0;entryX=0.5;entryY=0;entryDx=0;entryDy=0;jumpStyle=arc;" parent="1" source="otjd4q_MsGb5rQ5jIEgQ-2" target="jOcuIUpdUd1TaXLq8vQ0-1" edge="1">
          <mxGeometry relative="1" as="geometry" />
        </mxCell>
        <mxCell id="jOcuIUpdUd1TaXLq8vQ0-7" style="edgeStyle=orthogonalEdgeStyle;shape=connector;rounded=0;jumpStyle=arc;orthogonalLoop=1;jettySize=auto;html=1;exitX=1;exitY=0.5;exitDx=0;exitDy=0;entryX=0;entryY=0.5;entryDx=0;entryDy=0;strokeColor=default;align=center;verticalAlign=middle;fontFamily=Helvetica;fontSize=11;fontColor=default;labelBackgroundColor=default;endArrow=classic;" parent="1" source="otjd4q_MsGb5rQ5jIEgQ-2" target="jOcuIUpdUd1TaXLq8vQ0-13" edge="1">
          <mxGeometry relative="1" as="geometry">
            <mxPoint x="-60" y="420" as="targetPoint" />
          </mxGeometry>
        </mxCell>
        <mxCell id="otjd4q_MsGb5rQ5jIEgQ-2" value="filter&lt;div&gt;CheckSkipCondition&lt;/div&gt;" style="rhombus;whiteSpace=wrap;html=1;" parent="1" vertex="1">
          <mxGeometry x="-340" y="380" width="120" height="80" as="geometry" />
        </mxCell>
        <mxCell id="otjd4q_MsGb5rQ5jIEgQ-3" value="" style="endArrow=classic;html=1;rounded=0;" parent="1" edge="1">
          <mxGeometry width="50" height="50" relative="1" as="geometry">
            <mxPoint x="-480" y="440" as="sourcePoint" />
            <mxPoint x="-480" y="440" as="targetPoint" />
          </mxGeometry>
        </mxCell>
        <mxCell id="otjd4q_MsGb5rQ5jIEgQ-34" style="edgeStyle=orthogonalEdgeStyle;rounded=0;orthogonalLoop=1;jettySize=auto;html=1;jumpStyle=arc;" parent="1" source="otjd4q_MsGb5rQ5jIEgQ-33" target="otjd4q_MsGb5rQ5jIEgQ-2" edge="1">
          <mxGeometry relative="1" as="geometry" />
        </mxCell>
        <mxCell id="otjd4q_MsGb5rQ5jIEgQ-33" value="map&lt;div&gt;SetNotElase&lt;/div&gt;" style="shape=offPageConnector;whiteSpace=wrap;html=1;direction=north;" parent="1" vertex="1">
          <mxGeometry x="-470" y="400" width="80" height="40" as="geometry" />
        </mxCell>
        <mxCell id="otjd4q_MsGb5rQ5jIEgQ-35" value="" style="endArrow=classic;html=1;rounded=0;entryX=0.5;entryY=0;entryDx=0;entryDy=0;" parent="1" target="otjd4q_MsGb5rQ5jIEgQ-33" edge="1">
          <mxGeometry width="50" height="50" relative="1" as="geometry">
            <mxPoint x="-550" y="420" as="sourcePoint" />
            <mxPoint x="160" y="520" as="targetPoint" />
          </mxGeometry>
        </mxCell>
        <mxCell id="jOcuIUpdUd1TaXLq8vQ0-1" value="KFをDBに追加&lt;div&gt;SetErase&lt;/div&gt;" style="shape=process;whiteSpace=wrap;html=1;backgroundOutline=1;" parent="1" vertex="1">
          <mxGeometry x="-340" y="480" width="120" height="60" as="geometry" />
        </mxCell>
        <mxCell id="jOcuIUpdUd1TaXLq8vQ0-3" value="false" style="text;html=1;align=center;verticalAlign=middle;whiteSpace=wrap;rounded=0;fontFamily=Helvetica;fontSize=11;fontColor=default;labelBackgroundColor=default;" parent="1" vertex="1">
          <mxGeometry x="-220" y="400" width="30" height="20" as="geometry" />
        </mxCell>
        <mxCell id="jOcuIUpdUd1TaXLq8vQ0-4" value="true" style="text;html=1;align=center;verticalAlign=middle;whiteSpace=wrap;rounded=0;fontFamily=Helvetica;fontSize=11;fontColor=default;labelBackgroundColor=default;" parent="1" vertex="1">
          <mxGeometry x="-280" y="460" width="30" height="20" as="geometry" />
        </mxCell>
        <mxCell id="fBkH5EgTwrjanHVilxN5-11" style="edgeStyle=orthogonalEdgeStyle;shape=connector;rounded=0;jumpStyle=arc;orthogonalLoop=1;jettySize=auto;html=1;exitX=1;exitY=0.181;exitDx=0;exitDy=0;strokeColor=default;align=center;verticalAlign=middle;fontFamily=Helvetica;fontSize=11;fontColor=default;labelBackgroundColor=default;endArrow=classic;endFill=1;exitPerimeter=0;entryX=0;entryY=0.5;entryDx=0;entryDy=0;" parent="1" source="jOcuIUpdUd1TaXLq8vQ0-13" target="fBkH5EgTwrjanHVilxN5-15" edge="1">
          <mxGeometry relative="1" as="geometry">
            <mxPoint x="40" y="160" as="targetPoint" />
            <Array as="points">
              <mxPoint x="50" y="305" />
              <mxPoint x="50" y="225" />
            </Array>
          </mxGeometry>
        </mxCell>
        <mxCell id="jOcuIUpdUd1TaXLq8vQ0-13" value="Detectors" style="shape=process;whiteSpace=wrap;html=1;backgroundOutline=1;fontFamily=Helvetica;fontSize=11;fontColor=default;labelBackgroundColor=default;" parent="1" vertex="1">
          <mxGeometry x="-150" y="240" width="120" height="360" as="geometry" />
        </mxCell>
        <mxCell id="jOcuIUpdUd1TaXLq8vQ0-23" value="s_loopSim3Result" style="text;html=1;align=center;verticalAlign=middle;whiteSpace=wrap;rounded=0;fontFamily=Helvetica;fontSize=11;fontColor=default;labelBackgroundColor=default;" parent="1" vertex="1">
          <mxGeometry x="-27.5" y="280" width="90" height="20" as="geometry" />
        </mxCell>
        <mxCell id="jOcuIUpdUd1TaXLq8vQ0-24" value="s_loopBoWResult" style="text;html=1;align=center;verticalAlign=middle;whiteSpace=wrap;rounded=0;fontFamily=Helvetica;fontSize=11;fontColor=default;labelBackgroundColor=default;" parent="1" vertex="1">
          <mxGeometry x="-27.5" y="360" width="90" height="20" as="geometry" />
        </mxCell>
        <mxCell id="jOcuIUpdUd1TaXLq8vQ0-25" value="s_mergeBowresult" style="text;html=1;align=center;verticalAlign=middle;whiteSpace=wrap;rounded=0;fontFamily=Helvetica;fontSize=11;fontColor=default;labelBackgroundColor=default;" parent="1" vertex="1">
          <mxGeometry x="-27.5" y="525" width="95" height="20" as="geometry" />
        </mxCell>
        <mxCell id="jOcuIUpdUd1TaXLq8vQ0-26" value="s_mergeSim3Result" style="text;html=1;align=center;verticalAlign=middle;whiteSpace=wrap;rounded=0;fontFamily=Helvetica;fontSize=11;fontColor=default;labelBackgroundColor=default;" parent="1" vertex="1">
          <mxGeometry x="-27.5" y="445" width="102.5" height="20" as="geometry" />
        </mxCell>
        <mxCell id="jOcuIUpdUd1TaXLq8vQ0-27" value="" style="endArrow=classic;html=1;rounded=0;strokeColor=default;align=center;verticalAlign=middle;fontFamily=Helvetica;fontSize=11;fontColor=default;labelBackgroundColor=default;edgeStyle=orthogonalEdgeStyle;jumpStyle=arc;exitX=1;exitY=0.203;exitDx=0;exitDy=0;exitPerimeter=0;entryX=0;entryY=0.5;entryDx=0;entryDy=0;" parent="1" source="jOcuIUpdUd1TaXLq8vQ0-13" target="jwtWvs9LbV1GjCzSH4Sg-1" edge="1">
          <mxGeometry width="50" height="50" relative="1" as="geometry">
            <mxPoint x="-30" y="360" as="sourcePoint" />
            <mxPoint x="100" y="313" as="targetPoint" />
            <Array as="points">
              <mxPoint x="-30" y="305" />
            </Array>
          </mxGeometry>
        </mxCell>
        <mxCell id="jOcuIUpdUd1TaXLq8vQ0-29" value="" style="endArrow=classic;html=1;rounded=0;strokeColor=default;align=center;verticalAlign=middle;fontFamily=Helvetica;fontSize=11;fontColor=default;labelBackgroundColor=default;edgeStyle=orthogonalEdgeStyle;jumpStyle=arc;exitX=1;exitY=0.4;exitDx=0;exitDy=0;exitPerimeter=0;entryX=0;entryY=0.5;entryDx=0;entryDy=0;" parent="1" source="jOcuIUpdUd1TaXLq8vQ0-13" target="jwtWvs9LbV1GjCzSH4Sg-4" edge="1">
          <mxGeometry width="50" height="50" relative="1" as="geometry">
            <mxPoint x="-20" y="430" as="sourcePoint" />
            <mxPoint x="130" y="360" as="targetPoint" />
            <Array as="points">
              <mxPoint x="120" y="384" />
              <mxPoint x="120" y="385" />
            </Array>
          </mxGeometry>
        </mxCell>
        <mxCell id="jOcuIUpdUd1TaXLq8vQ0-30" value="" style="endArrow=classic;html=1;rounded=0;strokeColor=default;align=center;verticalAlign=middle;fontFamily=Helvetica;fontSize=11;fontColor=default;labelBackgroundColor=default;edgeStyle=orthogonalEdgeStyle;jumpStyle=arc;entryX=0;entryY=0.5;entryDx=0;entryDy=0;exitX=0.992;exitY=0.631;exitDx=0;exitDy=0;exitPerimeter=0;" parent="1" source="jOcuIUpdUd1TaXLq8vQ0-13" target="jwtWvs9LbV1GjCzSH4Sg-15" edge="1">
          <mxGeometry width="50" height="50" relative="1" as="geometry">
            <mxPoint x="-30" y="465" as="sourcePoint" />
            <mxPoint x="100" y="456" as="targetPoint" />
            <Array as="points">
              <mxPoint x="-31" y="465" />
            </Array>
          </mxGeometry>
        </mxCell>
        <mxCell id="jOcuIUpdUd1TaXLq8vQ0-31" value="" style="endArrow=classic;html=1;rounded=0;strokeColor=default;align=center;verticalAlign=middle;fontFamily=Helvetica;fontSize=11;fontColor=default;labelBackgroundColor=default;edgeStyle=orthogonalEdgeStyle;jumpStyle=arc;exitX=1;exitY=0.8;exitDx=0;exitDy=0;exitPerimeter=0;entryX=0;entryY=0.5;entryDx=0;entryDy=0;" parent="1" source="jOcuIUpdUd1TaXLq8vQ0-13" target="jwtWvs9LbV1GjCzSH4Sg-18" edge="1">
          <mxGeometry width="50" height="50" relative="1" as="geometry">
            <mxPoint x="-50" y="479.5" as="sourcePoint" />
            <mxPoint x="100" y="528" as="targetPoint" />
            <Array as="points">
              <mxPoint x="-30" y="545" />
            </Array>
          </mxGeometry>
        </mxCell>
        <mxCell id="yKHBwBAMihrBw6HAEIQY-8" style="edgeStyle=orthogonalEdgeStyle;shape=connector;rounded=0;jumpStyle=arc;orthogonalLoop=1;jettySize=auto;html=1;entryX=0.25;entryY=1;entryDx=0;entryDy=0;strokeColor=default;align=center;verticalAlign=middle;fontFamily=Helvetica;fontSize=11;fontColor=default;labelBackgroundColor=default;endArrow=classic;" parent="1" source="jwtWvs9LbV1GjCzSH4Sg-1" target="yKHBwBAMihrBw6HAEIQY-7" edge="1">
          <mxGeometry relative="1" as="geometry">
            <Array as="points">
              <mxPoint x="50" y="305" />
              <mxPoint x="50" y="150" />
              <mxPoint x="220" y="150" />
            </Array>
          </mxGeometry>
        </mxCell>
        <mxCell id="yKHBwBAMihrBw6HAEIQY-9" style="edgeStyle=orthogonalEdgeStyle;shape=connector;rounded=0;jumpStyle=arc;orthogonalLoop=1;jettySize=auto;html=1;entryX=0.25;entryY=1;entryDx=0;entryDy=0;strokeColor=default;align=center;verticalAlign=middle;fontFamily=Helvetica;fontSize=11;fontColor=default;labelBackgroundColor=default;endArrow=classic;" parent="1" source="jwtWvs9LbV1GjCzSH4Sg-1" target="fBkH5EgTwrjanHVilxN5-33" edge="1">
          <mxGeometry relative="1" as="geometry">
            <Array as="points">
              <mxPoint x="50" y="305" />
              <mxPoint x="50" y="150" />
              <mxPoint x="440" y="150" />
            </Array>
          </mxGeometry>
        </mxCell>
        <mxCell id="jwtWvs9LbV1GjCzSH4Sg-1" value="filter&lt;div&gt;bDetected&lt;/div&gt;" style="rhombus;whiteSpace=wrap;html=1;fontFamily=Helvetica;fontSize=11;fontColor=default;labelBackgroundColor=default;" parent="1" vertex="1">
          <mxGeometry x="180" y="270" width="120" height="70" as="geometry" />
        </mxCell>
        <mxCell id="jwtWvs9LbV1GjCzSH4Sg-8" style="edgeStyle=orthogonalEdgeStyle;shape=connector;rounded=0;jumpStyle=arc;orthogonalLoop=1;jettySize=auto;html=1;exitX=0.5;exitY=1;exitDx=0;exitDy=0;entryX=0.25;entryY=1;entryDx=0;entryDy=0;strokeColor=default;align=center;verticalAlign=middle;fontFamily=Helvetica;fontSize=11;fontColor=default;labelBackgroundColor=default;endArrow=classic;endFill=1;" parent="1" source="jwtWvs9LbV1GjCzSH4Sg-3" target="jwtWvs9LbV1GjCzSH4Sg-6" edge="1">
          <mxGeometry relative="1" as="geometry" />
        </mxCell>
        <mxCell id="jwtWvs9LbV1GjCzSH4Sg-3" value="map" style="shape=offPageConnector;whiteSpace=wrap;html=1;fontFamily=Helvetica;fontSize=11;fontColor=default;labelBackgroundColor=default;direction=north;" parent="1" vertex="1">
          <mxGeometry x="300" y="285" width="80" height="40" as="geometry" />
        </mxCell>
        <mxCell id="yKHBwBAMihrBw6HAEIQY-10" style="edgeStyle=orthogonalEdgeStyle;shape=connector;rounded=0;jumpStyle=arc;orthogonalLoop=1;jettySize=auto;html=1;entryX=0.5;entryY=1;entryDx=0;entryDy=0;strokeColor=default;align=center;verticalAlign=middle;fontFamily=Helvetica;fontSize=11;fontColor=default;labelBackgroundColor=default;endArrow=classic;" parent="1" source="jwtWvs9LbV1GjCzSH4Sg-4" target="fBkH5EgTwrjanHVilxN5-33" edge="1">
          <mxGeometry relative="1" as="geometry">
            <Array as="points">
              <mxPoint x="80" y="385" />
              <mxPoint x="80" y="170" />
              <mxPoint x="470" y="170" />
            </Array>
          </mxGeometry>
        </mxCell>
        <mxCell id="jwtWvs9LbV1GjCzSH4Sg-4" value="filter&lt;div&gt;bDetected&lt;/div&gt;" style="rhombus;whiteSpace=wrap;html=1;fontFamily=Helvetica;fontSize=11;fontColor=default;labelBackgroundColor=default;" parent="1" vertex="1">
          <mxGeometry x="180" y="350" width="120" height="70" as="geometry" />
        </mxCell>
        <mxCell id="jwtWvs9LbV1GjCzSH4Sg-9" style="edgeStyle=orthogonalEdgeStyle;shape=connector;rounded=0;jumpStyle=arc;orthogonalLoop=1;jettySize=auto;html=1;exitX=0.5;exitY=1;exitDx=0;exitDy=0;entryX=0.75;entryY=1;entryDx=0;entryDy=0;strokeColor=default;align=center;verticalAlign=middle;fontFamily=Helvetica;fontSize=11;fontColor=default;labelBackgroundColor=default;endArrow=classic;endFill=1;" parent="1" source="jwtWvs9LbV1GjCzSH4Sg-5" target="jwtWvs9LbV1GjCzSH4Sg-6" edge="1">
          <mxGeometry relative="1" as="geometry" />
        </mxCell>
        <mxCell id="jwtWvs9LbV1GjCzSH4Sg-5" value="map" style="shape=offPageConnector;whiteSpace=wrap;html=1;fontFamily=Helvetica;fontSize=11;fontColor=default;labelBackgroundColor=default;direction=north;" parent="1" vertex="1">
          <mxGeometry x="300" y="365" width="80" height="40" as="geometry" />
        </mxCell>
        <mxCell id="jwtWvs9LbV1GjCzSH4Sg-12" style="edgeStyle=orthogonalEdgeStyle;shape=connector;rounded=0;jumpStyle=arc;orthogonalLoop=1;jettySize=auto;html=1;exitX=0.5;exitY=0;exitDx=0;exitDy=0;entryX=0;entryY=0.5;entryDx=0;entryDy=0;strokeColor=default;align=center;verticalAlign=middle;fontFamily=Helvetica;fontSize=11;fontColor=default;labelBackgroundColor=default;endArrow=classic;endFill=1;" parent="1" source="jwtWvs9LbV1GjCzSH4Sg-6" target="jwtWvs9LbV1GjCzSH4Sg-10" edge="1">
          <mxGeometry relative="1" as="geometry" />
        </mxCell>
        <mxCell id="jwtWvs9LbV1GjCzSH4Sg-6" value="orElse" style="shape=trapezoid;perimeter=trapezoidPerimeter;whiteSpace=wrap;html=1;fixedSize=1;fontFamily=Helvetica;fontSize=11;fontColor=default;labelBackgroundColor=default;direction=south;" parent="1" vertex="1">
          <mxGeometry x="420" y="285" width="60" height="120" as="geometry" />
        </mxCell>
        <mxCell id="jwtWvs9LbV1GjCzSH4Sg-48" style="edgeStyle=orthogonalEdgeStyle;shape=connector;rounded=0;jumpStyle=arc;orthogonalLoop=1;jettySize=auto;html=1;entryX=0;entryY=0.5;entryDx=0;entryDy=0;strokeColor=default;align=center;verticalAlign=middle;fontFamily=Helvetica;fontSize=11;fontColor=default;labelBackgroundColor=default;endArrow=classic;endFill=1;" parent="1" source="jwtWvs9LbV1GjCzSH4Sg-10" target="jwtWvs9LbV1GjCzSH4Sg-44" edge="1">
          <mxGeometry relative="1" as="geometry" />
        </mxCell>
        <mxCell id="jwtWvs9LbV1GjCzSH4Sg-49" style="edgeStyle=orthogonalEdgeStyle;shape=connector;rounded=0;jumpStyle=arc;orthogonalLoop=1;jettySize=auto;html=1;strokeColor=default;align=center;verticalAlign=middle;fontFamily=Helvetica;fontSize=11;fontColor=default;labelBackgroundColor=default;endArrow=classic;endFill=1;entryX=0.5;entryY=0;entryDx=0;entryDy=0;" parent="1" source="jwtWvs9LbV1GjCzSH4Sg-10" target="jwtWvs9LbV1GjCzSH4Sg-29" edge="1">
          <mxGeometry relative="1" as="geometry">
            <mxPoint x="910" y="610" as="targetPoint" />
          </mxGeometry>
        </mxCell>
        <mxCell id="fBkH5EgTwrjanHVilxN5-9" style="edgeStyle=orthogonalEdgeStyle;shape=connector;rounded=0;jumpStyle=arc;orthogonalLoop=1;jettySize=auto;html=1;strokeColor=default;align=center;verticalAlign=middle;fontFamily=Helvetica;fontSize=11;fontColor=default;labelBackgroundColor=default;endArrow=classic;endFill=1;entryX=0.5;entryY=1;entryDx=0;entryDy=0;exitX=0.5;exitY=0;exitDx=0;exitDy=0;" parent="1" source="jwtWvs9LbV1GjCzSH4Sg-6" target="fBkH5EgTwrjanHVilxN5-18" edge="1">
          <mxGeometry relative="1" as="geometry">
            <mxPoint x="665" y="230" as="targetPoint" />
            <Array as="points">
              <mxPoint x="500" y="345" />
              <mxPoint x="500" y="250" />
            </Array>
          </mxGeometry>
        </mxCell>
        <mxCell id="yKHBwBAMihrBw6HAEIQY-1" style="edgeStyle=orthogonalEdgeStyle;rounded=0;orthogonalLoop=1;jettySize=auto;html=1;exitX=0;exitY=1;exitDx=0;exitDy=0;entryX=0.5;entryY=1;entryDx=0;entryDy=0;jumpStyle=arc;" parent="1" source="jOcuIUpdUd1TaXLq8vQ0-26" target="fBkH5EgTwrjanHVilxN5-31" edge="1">
          <mxGeometry relative="1" as="geometry">
            <Array as="points">
              <mxPoint x="80" y="465" />
              <mxPoint x="80" y="690" />
              <mxPoint x="474" y="690" />
            </Array>
          </mxGeometry>
        </mxCell>
        <mxCell id="yKHBwBAMihrBw6HAEIQY-5" style="edgeStyle=orthogonalEdgeStyle;shape=connector;rounded=0;jumpStyle=arc;orthogonalLoop=1;jettySize=auto;html=1;entryX=0.75;entryY=1;entryDx=0;entryDy=0;strokeColor=default;align=center;verticalAlign=middle;fontFamily=Helvetica;fontSize=11;fontColor=default;labelBackgroundColor=default;endArrow=classic;" parent="1" source="jwtWvs9LbV1GjCzSH4Sg-15" target="yKHBwBAMihrBw6HAEIQY-3" edge="1">
          <mxGeometry relative="1" as="geometry">
            <Array as="points">
              <mxPoint x="80" y="465" />
              <mxPoint x="80" y="690" />
              <mxPoint x="220" y="690" />
            </Array>
          </mxGeometry>
        </mxCell>
        <mxCell id="jwtWvs9LbV1GjCzSH4Sg-15" value="filter&lt;div&gt;bDetected&lt;/div&gt;" style="rhombus;whiteSpace=wrap;html=1;fontFamily=Helvetica;fontSize=11;fontColor=default;labelBackgroundColor=default;" parent="1" vertex="1">
          <mxGeometry x="180" y="430" width="120" height="70" as="geometry" />
        </mxCell>
        <mxCell id="jwtWvs9LbV1GjCzSH4Sg-16" style="edgeStyle=orthogonalEdgeStyle;shape=connector;rounded=0;jumpStyle=arc;orthogonalLoop=1;jettySize=auto;html=1;exitX=0.5;exitY=1;exitDx=0;exitDy=0;entryX=0.25;entryY=1;entryDx=0;entryDy=0;strokeColor=default;align=center;verticalAlign=middle;fontFamily=Helvetica;fontSize=11;fontColor=default;labelBackgroundColor=default;endArrow=classic;endFill=1;" parent="1" source="jwtWvs9LbV1GjCzSH4Sg-17" target="jwtWvs9LbV1GjCzSH4Sg-22" edge="1">
          <mxGeometry relative="1" as="geometry" />
        </mxCell>
        <mxCell id="jwtWvs9LbV1GjCzSH4Sg-17" value="map" style="shape=offPageConnector;whiteSpace=wrap;html=1;fontFamily=Helvetica;fontSize=11;fontColor=default;labelBackgroundColor=default;direction=north;" parent="1" vertex="1">
          <mxGeometry x="300" y="445" width="80" height="40" as="geometry" />
        </mxCell>
        <mxCell id="yKHBwBAMihrBw6HAEIQY-2" style="edgeStyle=orthogonalEdgeStyle;shape=connector;rounded=0;jumpStyle=arc;orthogonalLoop=1;jettySize=auto;html=1;exitX=0;exitY=1;exitDx=0;exitDy=0;entryX=0.75;entryY=1;entryDx=0;entryDy=0;strokeColor=default;align=center;verticalAlign=middle;fontFamily=Helvetica;fontSize=11;fontColor=default;labelBackgroundColor=default;endArrow=classic;" parent="1" source="jOcuIUpdUd1TaXLq8vQ0-25" target="fBkH5EgTwrjanHVilxN5-31" edge="1">
          <mxGeometry relative="1" as="geometry">
            <Array as="points">
              <mxPoint x="50" y="545" />
              <mxPoint x="50" y="710" />
              <mxPoint x="444" y="710" />
            </Array>
          </mxGeometry>
        </mxCell>
        <mxCell id="jwtWvs9LbV1GjCzSH4Sg-18" value="filter&lt;div&gt;bDetected&lt;/div&gt;" style="rhombus;whiteSpace=wrap;html=1;fontFamily=Helvetica;fontSize=11;fontColor=default;labelBackgroundColor=default;" parent="1" vertex="1">
          <mxGeometry x="180" y="510" width="120" height="70" as="geometry" />
        </mxCell>
        <mxCell id="jwtWvs9LbV1GjCzSH4Sg-19" style="edgeStyle=orthogonalEdgeStyle;shape=connector;rounded=0;jumpStyle=arc;orthogonalLoop=1;jettySize=auto;html=1;exitX=0.5;exitY=1;exitDx=0;exitDy=0;entryX=0.75;entryY=1;entryDx=0;entryDy=0;strokeColor=default;align=center;verticalAlign=middle;fontFamily=Helvetica;fontSize=11;fontColor=default;labelBackgroundColor=default;endArrow=classic;endFill=1;" parent="1" source="jwtWvs9LbV1GjCzSH4Sg-20" target="jwtWvs9LbV1GjCzSH4Sg-22" edge="1">
          <mxGeometry relative="1" as="geometry" />
        </mxCell>
        <mxCell id="jwtWvs9LbV1GjCzSH4Sg-20" value="map" style="shape=offPageConnector;whiteSpace=wrap;html=1;fontFamily=Helvetica;fontSize=11;fontColor=default;labelBackgroundColor=default;direction=north;" parent="1" vertex="1">
          <mxGeometry x="300" y="525" width="80" height="40" as="geometry" />
        </mxCell>
        <mxCell id="jwtWvs9LbV1GjCzSH4Sg-21" style="edgeStyle=orthogonalEdgeStyle;shape=connector;rounded=0;jumpStyle=arc;orthogonalLoop=1;jettySize=auto;html=1;exitX=0.5;exitY=0;exitDx=0;exitDy=0;entryX=0;entryY=0.5;entryDx=0;entryDy=0;strokeColor=default;align=center;verticalAlign=middle;fontFamily=Helvetica;fontSize=11;fontColor=default;labelBackgroundColor=default;endArrow=classic;endFill=1;" parent="1" source="jwtWvs9LbV1GjCzSH4Sg-22" target="jwtWvs9LbV1GjCzSH4Sg-23" edge="1">
          <mxGeometry relative="1" as="geometry" />
        </mxCell>
        <mxCell id="jwtWvs9LbV1GjCzSH4Sg-22" value="orElse" style="shape=trapezoid;perimeter=trapezoidPerimeter;whiteSpace=wrap;html=1;fixedSize=1;fontFamily=Helvetica;fontSize=11;fontColor=default;labelBackgroundColor=default;direction=south;" parent="1" vertex="1">
          <mxGeometry x="420" y="445" width="60" height="120" as="geometry" />
        </mxCell>
        <mxCell id="jwtWvs9LbV1GjCzSH4Sg-47" style="edgeStyle=orthogonalEdgeStyle;shape=connector;rounded=0;jumpStyle=arc;orthogonalLoop=1;jettySize=auto;html=1;exitX=1;exitY=0.5;exitDx=0;exitDy=0;entryX=0.75;entryY=1;entryDx=0;entryDy=0;strokeColor=default;align=center;verticalAlign=middle;fontFamily=Helvetica;fontSize=11;fontColor=default;labelBackgroundColor=default;endArrow=classic;endFill=1;" parent="1" source="jwtWvs9LbV1GjCzSH4Sg-23" target="jwtWvs9LbV1GjCzSH4Sg-42" edge="1">
          <mxGeometry relative="1" as="geometry" />
        </mxCell>
        <mxCell id="jwtWvs9LbV1GjCzSH4Sg-50" style="edgeStyle=orthogonalEdgeStyle;shape=connector;rounded=0;jumpStyle=arc;orthogonalLoop=1;jettySize=auto;html=1;entryX=0.5;entryY=0;entryDx=0;entryDy=0;strokeColor=default;align=center;verticalAlign=middle;fontFamily=Helvetica;fontSize=11;fontColor=default;labelBackgroundColor=default;endArrow=classic;endFill=1;" parent="1" source="jwtWvs9LbV1GjCzSH4Sg-23" target="jwtWvs9LbV1GjCzSH4Sg-30" edge="1">
          <mxGeometry relative="1" as="geometry" />
        </mxCell>
        <mxCell id="fBkH5EgTwrjanHVilxN5-8" style="edgeStyle=orthogonalEdgeStyle;shape=connector;rounded=0;jumpStyle=arc;orthogonalLoop=1;jettySize=auto;html=1;exitX=0.5;exitY=0;exitDx=0;exitDy=0;strokeColor=default;align=center;verticalAlign=middle;fontFamily=Helvetica;fontSize=11;fontColor=default;labelBackgroundColor=default;endArrow=classic;endFill=1;entryX=0.25;entryY=1;entryDx=0;entryDy=0;" parent="1" source="jwtWvs9LbV1GjCzSH4Sg-22" target="fBkH5EgTwrjanHVilxN5-17" edge="1">
          <mxGeometry relative="1" as="geometry">
            <mxPoint x="575" y="230" as="targetPoint" />
            <Array as="points">
              <mxPoint x="500" y="505" />
              <mxPoint x="500" y="585" />
            </Array>
          </mxGeometry>
        </mxCell>
        <mxCell id="fBkH5EgTwrjanHVilxN5-29" style="edgeStyle=orthogonalEdgeStyle;shape=connector;rounded=0;jumpStyle=arc;orthogonalLoop=1;jettySize=auto;html=1;entryX=0.75;entryY=1;entryDx=0;entryDy=0;strokeColor=default;align=center;verticalAlign=middle;fontFamily=Helvetica;fontSize=11;fontColor=default;labelBackgroundColor=default;endArrow=classic;endFill=1;" parent="1" source="jwtWvs9LbV1GjCzSH4Sg-23" target="fBkH5EgTwrjanHVilxN5-18" edge="1">
          <mxGeometry relative="1" as="geometry">
            <Array as="points">
              <mxPoint x="720" y="505" />
              <mxPoint x="720" y="275" />
            </Array>
          </mxGeometry>
        </mxCell>
        <mxCell id="jwtWvs9LbV1GjCzSH4Sg-23" value="filter&lt;div&gt;GoddMerge&lt;/div&gt;" style="rhombus;whiteSpace=wrap;html=1;fontFamily=Helvetica;fontSize=11;fontColor=default;labelBackgroundColor=default;" parent="1" vertex="1">
          <mxGeometry x="520" y="470" width="110" height="70" as="geometry" />
        </mxCell>
        <mxCell id="jwtWvs9LbV1GjCzSH4Sg-33" style="edgeStyle=orthogonalEdgeStyle;shape=connector;rounded=0;jumpStyle=arc;orthogonalLoop=1;jettySize=auto;html=1;exitX=0.5;exitY=0;exitDx=0;exitDy=0;strokeColor=default;align=center;verticalAlign=middle;fontFamily=Helvetica;fontSize=11;fontColor=default;labelBackgroundColor=default;endArrow=classic;endFill=1;" parent="1" source="jwtWvs9LbV1GjCzSH4Sg-24" edge="1">
          <mxGeometry relative="1" as="geometry">
            <mxPoint x="1360" y="515" as="targetPoint" />
          </mxGeometry>
        </mxCell>
        <mxCell id="jwtWvs9LbV1GjCzSH4Sg-36" style="edgeStyle=orthogonalEdgeStyle;shape=connector;rounded=0;jumpStyle=arc;orthogonalLoop=1;jettySize=auto;html=1;exitX=0.5;exitY=0;exitDx=0;exitDy=0;entryX=0;entryY=0.5;entryDx=0;entryDy=0;strokeColor=default;align=center;verticalAlign=middle;fontFamily=Helvetica;fontSize=11;fontColor=default;labelBackgroundColor=default;endArrow=classic;endFill=1;" parent="1" source="jwtWvs9LbV1GjCzSH4Sg-24" target="jwtWvs9LbV1GjCzSH4Sg-35" edge="1">
          <mxGeometry relative="1" as="geometry" />
        </mxCell>
        <mxCell id="jwtWvs9LbV1GjCzSH4Sg-24" value="orElse" style="shape=trapezoid;perimeter=trapezoidPerimeter;whiteSpace=wrap;html=1;fixedSize=1;fontFamily=Helvetica;fontSize=11;fontColor=default;labelBackgroundColor=default;direction=south;" parent="1" vertex="1">
          <mxGeometry x="1013" y="465" width="60" height="100" as="geometry" />
        </mxCell>
        <mxCell id="jwtWvs9LbV1GjCzSH4Sg-27" value="①" style="text;html=1;align=center;verticalAlign=middle;whiteSpace=wrap;rounded=0;fontFamily=Helvetica;fontSize=11;fontColor=default;labelBackgroundColor=default;" parent="1" vertex="1">
          <mxGeometry x="1013" y="530" width="20" height="20" as="geometry" />
        </mxCell>
        <mxCell id="jwtWvs9LbV1GjCzSH4Sg-28" value="②" style="text;html=1;align=center;verticalAlign=middle;whiteSpace=wrap;rounded=0;fontFamily=Helvetica;fontSize=11;fontColor=default;labelBackgroundColor=default;" parent="1" vertex="1">
          <mxGeometry x="1013" y="480" width="20" height="20" as="geometry" />
        </mxCell>
        <mxCell id="jwtWvs9LbV1GjCzSH4Sg-32" style="edgeStyle=orthogonalEdgeStyle;shape=connector;rounded=0;jumpStyle=arc;orthogonalLoop=1;jettySize=auto;html=1;entryX=0;entryY=0.75;entryDx=0;entryDy=0;strokeColor=default;align=center;verticalAlign=middle;fontFamily=Helvetica;fontSize=11;fontColor=default;labelBackgroundColor=default;endArrow=classic;endFill=1;" parent="1" source="jwtWvs9LbV1GjCzSH4Sg-29" target="jwtWvs9LbV1GjCzSH4Sg-28" edge="1">
          <mxGeometry relative="1" as="geometry" />
        </mxCell>
        <mxCell id="jwtWvs9LbV1GjCzSH4Sg-29" value="mapTo Loop" style="shape=offPageConnector;whiteSpace=wrap;html=1;fontFamily=Helvetica;fontSize=11;fontColor=default;labelBackgroundColor=default;direction=north;" parent="1" vertex="1">
          <mxGeometry x="880" y="475" width="80" height="40" as="geometry" />
        </mxCell>
        <mxCell id="jwtWvs9LbV1GjCzSH4Sg-31" style="edgeStyle=orthogonalEdgeStyle;shape=connector;rounded=0;jumpStyle=arc;orthogonalLoop=1;jettySize=auto;html=1;entryX=0;entryY=0.5;entryDx=0;entryDy=0;strokeColor=default;align=center;verticalAlign=middle;fontFamily=Helvetica;fontSize=11;fontColor=default;labelBackgroundColor=default;endArrow=classic;endFill=1;" parent="1" source="jwtWvs9LbV1GjCzSH4Sg-30" target="jwtWvs9LbV1GjCzSH4Sg-27" edge="1">
          <mxGeometry relative="1" as="geometry" />
        </mxCell>
        <mxCell id="jwtWvs9LbV1GjCzSH4Sg-30" value="mapTo Merge" style="shape=offPageConnector;whiteSpace=wrap;html=1;fontFamily=Helvetica;fontSize=11;fontColor=default;labelBackgroundColor=default;direction=north;" parent="1" vertex="1">
          <mxGeometry x="880" y="520" width="80" height="40" as="geometry" />
        </mxCell>
        <mxCell id="jwtWvs9LbV1GjCzSH4Sg-39" style="edgeStyle=orthogonalEdgeStyle;shape=connector;rounded=0;jumpStyle=arc;orthogonalLoop=1;jettySize=auto;html=1;strokeColor=default;align=center;verticalAlign=middle;fontFamily=Helvetica;fontSize=11;fontColor=default;labelBackgroundColor=default;endArrow=classic;endFill=1;" parent="1" source="jwtWvs9LbV1GjCzSH4Sg-35" edge="1">
          <mxGeometry relative="1" as="geometry">
            <mxPoint x="1360" y="445" as="targetPoint" />
          </mxGeometry>
        </mxCell>
        <mxCell id="jwtWvs9LbV1GjCzSH4Sg-35" value="gate" style="rhombus;whiteSpace=wrap;html=1;fontFamily=Helvetica;fontSize=11;fontColor=default;labelBackgroundColor=default;" parent="1" vertex="1">
          <mxGeometry x="1190" y="415" width="103" height="60" as="geometry" />
        </mxCell>
        <mxCell id="jwtWvs9LbV1GjCzSH4Sg-37" value="" style="endArrow=diamond;html=1;rounded=0;strokeColor=default;align=center;verticalAlign=middle;fontFamily=Helvetica;fontSize=11;fontColor=default;labelBackgroundColor=default;edgeStyle=orthogonalEdgeStyle;jumpStyle=arc;entryX=0.5;entryY=0;entryDx=0;entryDy=0;exitX=1;exitY=0.5;exitDx=0;exitDy=0;endFill=0;" parent="1" source="jwtWvs9LbV1GjCzSH4Sg-38" target="jwtWvs9LbV1GjCzSH4Sg-35" edge="1">
          <mxGeometry width="50" height="50" relative="1" as="geometry">
            <mxPoint x="1140" y="405" as="sourcePoint" />
            <mxPoint x="900" y="505" as="targetPoint" />
          </mxGeometry>
        </mxCell>
        <mxCell id="jwtWvs9LbV1GjCzSH4Sg-46" style="edgeStyle=orthogonalEdgeStyle;shape=connector;rounded=0;jumpStyle=arc;orthogonalLoop=1;jettySize=auto;html=1;entryX=0;entryY=0.25;entryDx=0;entryDy=0;strokeColor=default;align=center;verticalAlign=middle;fontFamily=Helvetica;fontSize=11;fontColor=default;labelBackgroundColor=default;endArrow=diamond;endFill=0;" parent="1" source="jwtWvs9LbV1GjCzSH4Sg-38" target="jwtWvs9LbV1GjCzSH4Sg-40" edge="1">
          <mxGeometry relative="1" as="geometry" />
        </mxCell>
        <mxCell id="jwtWvs9LbV1GjCzSH4Sg-38" value="c_GBAisRunning" style="text;html=1;align=center;verticalAlign=middle;whiteSpace=wrap;rounded=0;fontFamily=Helvetica;fontSize=11;fontColor=default;labelBackgroundColor=default;" parent="1" vertex="1">
          <mxGeometry x="1040" y="395" width="93" height="20" as="geometry" />
        </mxCell>
        <mxCell id="jwtWvs9LbV1GjCzSH4Sg-51" style="edgeStyle=orthogonalEdgeStyle;shape=connector;rounded=0;jumpStyle=arc;orthogonalLoop=1;jettySize=auto;html=1;exitX=0.5;exitY=1;exitDx=0;exitDy=0;strokeColor=default;align=center;verticalAlign=middle;fontFamily=Helvetica;fontSize=11;fontColor=default;labelBackgroundColor=default;endArrow=classic;endFill=1;" parent="1" source="jwtWvs9LbV1GjCzSH4Sg-40" edge="1">
          <mxGeometry relative="1" as="geometry">
            <mxPoint x="1360" y="335" as="targetPoint" />
          </mxGeometry>
        </mxCell>
        <mxCell id="jwtWvs9LbV1GjCzSH4Sg-40" value="snapshot" style="shape=offPageConnector;whiteSpace=wrap;html=1;fontFamily=Helvetica;fontSize=11;fontColor=default;labelBackgroundColor=default;direction=north;" parent="1" vertex="1">
          <mxGeometry x="1186" y="315" width="80" height="40" as="geometry" />
        </mxCell>
        <mxCell id="jwtWvs9LbV1GjCzSH4Sg-45" style="edgeStyle=orthogonalEdgeStyle;shape=connector;rounded=0;jumpStyle=arc;orthogonalLoop=1;jettySize=auto;html=1;entryX=0.5;entryY=0;entryDx=0;entryDy=0;strokeColor=default;align=center;verticalAlign=middle;fontFamily=Helvetica;fontSize=11;fontColor=default;labelBackgroundColor=default;endArrow=classic;endFill=1;" parent="1" source="jwtWvs9LbV1GjCzSH4Sg-42" target="jwtWvs9LbV1GjCzSH4Sg-40" edge="1">
          <mxGeometry relative="1" as="geometry" />
        </mxCell>
        <mxCell id="jwtWvs9LbV1GjCzSH4Sg-42" value="orElse" style="shape=trapezoid;perimeter=trapezoidPerimeter;whiteSpace=wrap;html=1;fixedSize=1;fontFamily=Helvetica;fontSize=11;fontColor=default;labelBackgroundColor=default;direction=south;" parent="1" vertex="1">
          <mxGeometry x="1013" y="285" width="60" height="100" as="geometry" />
        </mxCell>
        <mxCell id="jwtWvs9LbV1GjCzSH4Sg-43" value="①" style="text;html=1;align=center;verticalAlign=middle;whiteSpace=wrap;rounded=0;fontFamily=Helvetica;fontSize=11;fontColor=default;labelBackgroundColor=default;" parent="1" vertex="1">
          <mxGeometry x="1013" y="350" width="20" height="20" as="geometry" />
        </mxCell>
        <mxCell id="jwtWvs9LbV1GjCzSH4Sg-44" value="②" style="text;html=1;align=center;verticalAlign=middle;whiteSpace=wrap;rounded=0;fontFamily=Helvetica;fontSize=11;fontColor=default;labelBackgroundColor=default;" parent="1" vertex="1">
          <mxGeometry x="1013" y="300" width="20" height="20" as="geometry" />
        </mxCell>
        <mxCell id="jwtWvs9LbV1GjCzSH4Sg-52" value="s_goodLoop" style="text;html=1;align=center;verticalAlign=middle;whiteSpace=wrap;rounded=0;fontFamily=Helvetica;fontSize=11;fontColor=default;labelBackgroundColor=default;" parent="1" vertex="1">
          <mxGeometry x="630" y="325" width="70" height="20" as="geometry" />
        </mxCell>
        <mxCell id="jwtWvs9LbV1GjCzSH4Sg-53" value="s_goodMerge" style="text;html=1;align=center;verticalAlign=middle;whiteSpace=wrap;rounded=0;fontFamily=Helvetica;fontSize=11;fontColor=default;labelBackgroundColor=default;" parent="1" vertex="1">
          <mxGeometry x="630" y="480" width="70" height="20" as="geometry" />
        </mxCell>
        <mxCell id="fBkH5EgTwrjanHVilxN5-1" value="s_newMode" style="text;html=1;align=center;verticalAlign=middle;whiteSpace=wrap;rounded=0;fontFamily=Helvetica;fontSize=11;fontColor=default;labelBackgroundColor=default;" parent="1" vertex="1">
          <mxGeometry x="1300" y="495" width="60" height="20" as="geometry" />
        </mxCell>
        <mxCell id="fBkH5EgTwrjanHVilxN5-2" value="s_runGBA" style="text;html=1;align=center;verticalAlign=middle;whiteSpace=wrap;rounded=0;fontFamily=Helvetica;fontSize=11;fontColor=default;labelBackgroundColor=default;" parent="1" vertex="1">
          <mxGeometry x="1300" y="425" width="60" height="20" as="geometry" />
        </mxCell>
        <mxCell id="fBkH5EgTwrjanHVilxN5-3" value="s_DetectResult" style="text;html=1;align=center;verticalAlign=middle;whiteSpace=wrap;rounded=0;fontFamily=Helvetica;fontSize=11;fontColor=default;labelBackgroundColor=default;" parent="1" vertex="1">
          <mxGeometry x="1280" y="315" width="80" height="20" as="geometry" />
        </mxCell>
        <mxCell id="fBkH5EgTwrjanHVilxN5-12" value="" style="endArrow=classic;html=1;rounded=0;strokeColor=default;align=center;verticalAlign=middle;fontFamily=Helvetica;fontSize=11;fontColor=default;labelBackgroundColor=default;edgeStyle=orthogonalEdgeStyle;jumpStyle=arc;exitX=1;exitY=0.622;exitDx=0;exitDy=0;exitPerimeter=0;entryX=0;entryY=0.5;entryDx=0;entryDy=0;" parent="1" source="jOcuIUpdUd1TaXLq8vQ0-13" target="fBkH5EgTwrjanHVilxN5-14" edge="1">
          <mxGeometry width="50" height="50" relative="1" as="geometry">
            <mxPoint x="-60" y="490" as="sourcePoint" />
            <mxPoint x="120" y="200" as="targetPoint" />
            <Array as="points">
              <mxPoint x="80" y="464" />
              <mxPoint x="80" y="635" />
            </Array>
          </mxGeometry>
        </mxCell>
        <mxCell id="fBkH5EgTwrjanHVilxN5-16" style="edgeStyle=orthogonalEdgeStyle;shape=connector;rounded=0;jumpStyle=arc;orthogonalLoop=1;jettySize=auto;html=1;exitX=1;exitY=0.5;exitDx=0;exitDy=0;strokeColor=default;align=center;verticalAlign=middle;fontFamily=Helvetica;fontSize=11;fontColor=default;labelBackgroundColor=default;endArrow=classic;endFill=1;entryX=0.75;entryY=1;entryDx=0;entryDy=0;" parent="1" source="fBkH5EgTwrjanHVilxN5-14" target="fBkH5EgTwrjanHVilxN5-17" edge="1">
          <mxGeometry relative="1" as="geometry">
            <mxPoint x="470" y="225" as="targetPoint" />
          </mxGeometry>
        </mxCell>
        <mxCell id="fBkH5EgTwrjanHVilxN5-14" value="filetr&lt;div&gt;numNotFound &amp;gt;= 3&lt;/div&gt;" style="rhombus;whiteSpace=wrap;html=1;fontFamily=Helvetica;fontSize=11;fontColor=default;labelBackgroundColor=default;" parent="1" vertex="1">
          <mxGeometry x="180" y="600" width="120" height="70" as="geometry" />
        </mxCell>
        <mxCell id="fBkH5EgTwrjanHVilxN5-19" style="edgeStyle=orthogonalEdgeStyle;shape=connector;rounded=0;jumpStyle=arc;orthogonalLoop=1;jettySize=auto;html=1;exitX=1;exitY=0.5;exitDx=0;exitDy=0;entryX=0.25;entryY=1;entryDx=0;entryDy=0;strokeColor=default;align=center;verticalAlign=middle;fontFamily=Helvetica;fontSize=11;fontColor=default;labelBackgroundColor=default;endArrow=classic;endFill=1;" parent="1" source="fBkH5EgTwrjanHVilxN5-15" target="fBkH5EgTwrjanHVilxN5-18" edge="1">
          <mxGeometry relative="1" as="geometry" />
        </mxCell>
        <mxCell id="fBkH5EgTwrjanHVilxN5-15" value="filetr&lt;div&gt;numNotFound &amp;gt;= 3&lt;/div&gt;" style="rhombus;whiteSpace=wrap;html=1;fontFamily=Helvetica;fontSize=11;fontColor=default;labelBackgroundColor=default;" parent="1" vertex="1">
          <mxGeometry x="180" y="190" width="120" height="70" as="geometry" />
        </mxCell>
        <mxCell id="fBkH5EgTwrjanHVilxN5-20" style="edgeStyle=orthogonalEdgeStyle;shape=connector;rounded=0;jumpStyle=arc;orthogonalLoop=1;jettySize=auto;html=1;exitX=0.5;exitY=0;exitDx=0;exitDy=0;strokeColor=default;align=center;verticalAlign=middle;fontFamily=Helvetica;fontSize=11;fontColor=default;labelBackgroundColor=default;endArrow=classic;endFill=1;entryX=0.25;entryY=1;entryDx=0;entryDy=0;" parent="1" source="fBkH5EgTwrjanHVilxN5-17" target="fBkH5EgTwrjanHVilxN5-31" edge="1">
          <mxGeometry relative="1" as="geometry">
            <mxPoint x="880" y="710" as="targetPoint" />
            <Array as="points">
              <mxPoint x="800" y="610" />
              <mxPoint x="800" y="720" />
              <mxPoint x="504" y="720" />
            </Array>
          </mxGeometry>
        </mxCell>
        <mxCell id="yKHBwBAMihrBw6HAEIQY-6" style="edgeStyle=orthogonalEdgeStyle;shape=connector;rounded=0;jumpStyle=arc;orthogonalLoop=1;jettySize=auto;html=1;exitX=0.5;exitY=0;exitDx=0;exitDy=0;entryX=0.25;entryY=1;entryDx=0;entryDy=0;strokeColor=default;align=center;verticalAlign=middle;fontFamily=Helvetica;fontSize=11;fontColor=default;labelBackgroundColor=default;endArrow=classic;" parent="1" source="fBkH5EgTwrjanHVilxN5-17" target="yKHBwBAMihrBw6HAEIQY-3" edge="1">
          <mxGeometry relative="1" as="geometry">
            <Array as="points">
              <mxPoint x="800" y="610" />
              <mxPoint x="800" y="680" />
              <mxPoint x="280" y="680" />
            </Array>
          </mxGeometry>
        </mxCell>
        <mxCell id="fBkH5EgTwrjanHVilxN5-17" value="orElse" style="shape=trapezoid;perimeter=trapezoidPerimeter;whiteSpace=wrap;html=1;fixedSize=1;fontFamily=Helvetica;fontSize=11;fontColor=default;labelBackgroundColor=default;direction=south;" parent="1" vertex="1">
          <mxGeometry x="650" y="560" width="60" height="100" as="geometry" />
        </mxCell>
        <mxCell id="fBkH5EgTwrjanHVilxN5-21" style="edgeStyle=orthogonalEdgeStyle;shape=connector;rounded=0;jumpStyle=arc;orthogonalLoop=1;jettySize=auto;html=1;exitX=0.5;exitY=0;exitDx=0;exitDy=0;strokeColor=default;align=center;verticalAlign=middle;fontFamily=Helvetica;fontSize=11;fontColor=default;labelBackgroundColor=default;endArrow=classic;endFill=1;entryX=0.75;entryY=1;entryDx=0;entryDy=0;" parent="1" source="fBkH5EgTwrjanHVilxN5-18" target="fBkH5EgTwrjanHVilxN5-33" edge="1">
          <mxGeometry relative="1" as="geometry">
            <mxPoint x="910" y="250" as="targetPoint" />
            <Array as="points">
              <mxPoint x="960" y="250" />
              <mxPoint x="960" y="190" />
              <mxPoint x="500" y="190" />
            </Array>
          </mxGeometry>
        </mxCell>
        <mxCell id="yKHBwBAMihrBw6HAEIQY-11" style="edgeStyle=orthogonalEdgeStyle;shape=connector;rounded=0;jumpStyle=arc;orthogonalLoop=1;jettySize=auto;html=1;exitX=0.5;exitY=0;exitDx=0;exitDy=0;entryX=0.75;entryY=1;entryDx=0;entryDy=0;strokeColor=default;align=center;verticalAlign=middle;fontFamily=Helvetica;fontSize=11;fontColor=default;labelBackgroundColor=default;endArrow=classic;" parent="1" source="fBkH5EgTwrjanHVilxN5-18" target="yKHBwBAMihrBw6HAEIQY-7" edge="1">
          <mxGeometry relative="1" as="geometry">
            <Array as="points">
              <mxPoint x="960" y="250" />
              <mxPoint x="960" y="190" />
              <mxPoint x="280" y="190" />
            </Array>
          </mxGeometry>
        </mxCell>
        <mxCell id="fBkH5EgTwrjanHVilxN5-18" value="orElse" style="shape=trapezoid;perimeter=trapezoidPerimeter;whiteSpace=wrap;html=1;fixedSize=1;fontFamily=Helvetica;fontSize=11;fontColor=default;labelBackgroundColor=default;direction=south;" parent="1" vertex="1">
          <mxGeometry x="800" y="200" width="60" height="100" as="geometry" />
        </mxCell>
        <mxCell id="fBkH5EgTwrjanHVilxN5-23" value="s_loopReset" style="text;html=1;align=center;verticalAlign=middle;whiteSpace=wrap;rounded=0;fontFamily=Helvetica;fontSize=11;fontColor=default;labelBackgroundColor=default;" parent="1" vertex="1">
          <mxGeometry x="860" y="230" width="70" height="20" as="geometry" />
        </mxCell>
        <mxCell id="fBkH5EgTwrjanHVilxN5-24" value="s_mergeReset" style="text;html=1;align=center;verticalAlign=middle;whiteSpace=wrap;rounded=0;fontFamily=Helvetica;fontSize=11;fontColor=default;labelBackgroundColor=default;" parent="1" vertex="1">
          <mxGeometry x="715" y="590" width="80" height="20" as="geometry" />
        </mxCell>
        <mxCell id="yKHBwBAMihrBw6HAEIQY-16" style="edgeStyle=orthogonalEdgeStyle;shape=connector;rounded=0;jumpStyle=arc;orthogonalLoop=1;jettySize=auto;html=1;exitX=0;exitY=0.5;exitDx=0;exitDy=0;entryX=0.5;entryY=1;entryDx=0;entryDy=0;strokeColor=default;align=center;verticalAlign=middle;fontFamily=Helvetica;fontSize=11;fontColor=default;labelBackgroundColor=default;endArrow=diamond;endFill=0;" parent="1" source="fBkH5EgTwrjanHVilxN5-25" target="jOcuIUpdUd1TaXLq8vQ0-13" edge="1">
          <mxGeometry relative="1" as="geometry" />
        </mxCell>
        <mxCell id="fBkH5EgTwrjanHVilxN5-25" value="hold&lt;div&gt;0&lt;/div&gt;" style="rounded=1;whiteSpace=wrap;html=1;fontFamily=Helvetica;fontSize=11;fontColor=default;labelBackgroundColor=default;" parent="1" vertex="1">
          <mxGeometry x="210" y="820" width="80" height="50" as="geometry" />
        </mxCell>
        <mxCell id="yKHBwBAMihrBw6HAEIQY-17" style="edgeStyle=orthogonalEdgeStyle;shape=connector;rounded=0;jumpStyle=arc;orthogonalLoop=1;jettySize=auto;html=1;entryX=0;entryY=0.75;entryDx=0;entryDy=0;strokeColor=default;align=center;verticalAlign=middle;fontFamily=Helvetica;fontSize=11;fontColor=default;labelBackgroundColor=default;endArrow=diamond;endFill=0;" parent="1" source="fBkH5EgTwrjanHVilxN5-26" target="jOcuIUpdUd1TaXLq8vQ0-13" edge="1">
          <mxGeometry relative="1" as="geometry">
            <Array as="points">
              <mxPoint x="470" y="890" />
              <mxPoint x="-200" y="890" />
              <mxPoint x="-200" y="510" />
            </Array>
          </mxGeometry>
        </mxCell>
        <mxCell id="fBkH5EgTwrjanHVilxN5-26" value="hold&lt;div&gt;DetectorInfo()&lt;/div&gt;" style="rounded=1;whiteSpace=wrap;html=1;fontFamily=Helvetica;fontSize=11;fontColor=default;labelBackgroundColor=default;" parent="1" vertex="1">
          <mxGeometry x="430" y="820" width="80" height="50" as="geometry" />
        </mxCell>
        <mxCell id="yKHBwBAMihrBw6HAEIQY-15" style="edgeStyle=orthogonalEdgeStyle;shape=connector;rounded=0;jumpStyle=arc;orthogonalLoop=1;jettySize=auto;html=1;entryX=0;entryY=0.25;entryDx=0;entryDy=0;strokeColor=default;align=center;verticalAlign=middle;fontFamily=Helvetica;fontSize=11;fontColor=default;labelBackgroundColor=default;endArrow=diamond;endFill=0;" parent="1" source="fBkH5EgTwrjanHVilxN5-27" target="jOcuIUpdUd1TaXLq8vQ0-13" edge="1">
          <mxGeometry relative="1" as="geometry">
            <Array as="points">
              <mxPoint x="470" y="-30" />
              <mxPoint x="-200" y="-30" />
              <mxPoint x="-200" y="330" />
            </Array>
          </mxGeometry>
        </mxCell>
        <mxCell id="fBkH5EgTwrjanHVilxN5-27" value="hold&lt;div&gt;DetectorInfo()&lt;/div&gt;" style="rounded=1;whiteSpace=wrap;html=1;fontFamily=Helvetica;fontSize=11;fontColor=default;labelBackgroundColor=default;" parent="1" vertex="1">
          <mxGeometry x="430" y="-10" width="80" height="50" as="geometry" />
        </mxCell>
        <mxCell id="yKHBwBAMihrBw6HAEIQY-14" style="edgeStyle=orthogonalEdgeStyle;shape=connector;rounded=0;jumpStyle=arc;orthogonalLoop=1;jettySize=auto;html=1;entryX=0.5;entryY=0;entryDx=0;entryDy=0;strokeColor=default;align=center;verticalAlign=middle;fontFamily=Helvetica;fontSize=11;fontColor=default;labelBackgroundColor=default;endArrow=diamond;endFill=0;" parent="1" source="fBkH5EgTwrjanHVilxN5-28" target="jOcuIUpdUd1TaXLq8vQ0-13" edge="1">
          <mxGeometry relative="1" as="geometry" />
        </mxCell>
        <mxCell id="fBkH5EgTwrjanHVilxN5-28" value="hold&lt;div&gt;0&lt;/div&gt;" style="rounded=1;whiteSpace=wrap;html=1;fontFamily=Helvetica;fontSize=11;fontColor=default;labelBackgroundColor=default;" parent="1" vertex="1">
          <mxGeometry x="210" y="-10" width="80" height="50" as="geometry" />
        </mxCell>
        <mxCell id="jwtWvs9LbV1GjCzSH4Sg-10" value="filter&lt;div&gt;GoddLoop&lt;/div&gt;" style="rhombus;whiteSpace=wrap;html=1;fontFamily=Helvetica;fontSize=11;fontColor=default;labelBackgroundColor=default;" parent="1" vertex="1">
          <mxGeometry x="520" y="310" width="110" height="70" as="geometry" />
        </mxCell>
        <mxCell id="fBkH5EgTwrjanHVilxN5-32" style="edgeStyle=orthogonalEdgeStyle;shape=connector;rounded=0;jumpStyle=arc;orthogonalLoop=1;jettySize=auto;html=1;exitX=0.5;exitY=0;exitDx=0;exitDy=0;entryX=0.5;entryY=0;entryDx=0;entryDy=0;strokeColor=default;align=center;verticalAlign=middle;fontFamily=Helvetica;fontSize=11;fontColor=default;labelBackgroundColor=default;endArrow=classic;endFill=1;" parent="1" source="fBkH5EgTwrjanHVilxN5-31" target="fBkH5EgTwrjanHVilxN5-26" edge="1">
          <mxGeometry relative="1" as="geometry" />
        </mxCell>
        <mxCell id="fBkH5EgTwrjanHVilxN5-31" value="orElse" style="shape=trapezoid;perimeter=trapezoidPerimeter;whiteSpace=wrap;html=1;fixedSize=1;fontFamily=Helvetica;fontSize=11;fontColor=default;labelBackgroundColor=default;direction=west;" parent="1" vertex="1">
          <mxGeometry x="414" y="730" width="120" height="60" as="geometry" />
        </mxCell>
        <mxCell id="yKHBwBAMihrBw6HAEIQY-12" style="edgeStyle=orthogonalEdgeStyle;shape=connector;rounded=0;jumpStyle=arc;orthogonalLoop=1;jettySize=auto;html=1;exitX=0.5;exitY=0;exitDx=0;exitDy=0;entryX=0.5;entryY=1;entryDx=0;entryDy=0;strokeColor=default;align=center;verticalAlign=middle;fontFamily=Helvetica;fontSize=11;fontColor=default;labelBackgroundColor=default;endArrow=classic;" parent="1" source="fBkH5EgTwrjanHVilxN5-33" target="fBkH5EgTwrjanHVilxN5-27" edge="1">
          <mxGeometry relative="1" as="geometry" />
        </mxCell>
        <mxCell id="fBkH5EgTwrjanHVilxN5-33" value="orElse" style="shape=trapezoid;perimeter=trapezoidPerimeter;whiteSpace=wrap;html=1;fixedSize=1;fontFamily=Helvetica;fontSize=11;fontColor=default;labelBackgroundColor=default;direction=east;" parent="1" vertex="1">
          <mxGeometry x="410" y="70" width="120" height="60" as="geometry" />
        </mxCell>
        <mxCell id="yKHBwBAMihrBw6HAEIQY-4" style="edgeStyle=orthogonalEdgeStyle;shape=connector;rounded=0;jumpStyle=arc;orthogonalLoop=1;jettySize=auto;html=1;exitX=0.5;exitY=0;exitDx=0;exitDy=0;entryX=0.5;entryY=0;entryDx=0;entryDy=0;strokeColor=default;align=center;verticalAlign=middle;fontFamily=Helvetica;fontSize=11;fontColor=default;labelBackgroundColor=default;endArrow=classic;" parent="1" source="yKHBwBAMihrBw6HAEIQY-3" target="fBkH5EgTwrjanHVilxN5-25" edge="1">
          <mxGeometry relative="1" as="geometry" />
        </mxCell>
        <mxCell id="yKHBwBAMihrBw6HAEIQY-3" value="orElse" style="shape=trapezoid;perimeter=trapezoidPerimeter;whiteSpace=wrap;html=1;fixedSize=1;fontFamily=Helvetica;fontSize=11;fontColor=default;labelBackgroundColor=default;direction=west;" parent="1" vertex="1">
          <mxGeometry x="190" y="730" width="120" height="60" as="geometry" />
        </mxCell>
        <mxCell id="yKHBwBAMihrBw6HAEIQY-13" style="edgeStyle=orthogonalEdgeStyle;shape=connector;rounded=0;jumpStyle=arc;orthogonalLoop=1;jettySize=auto;html=1;exitX=0.5;exitY=0;exitDx=0;exitDy=0;entryX=0.5;entryY=1;entryDx=0;entryDy=0;strokeColor=default;align=center;verticalAlign=middle;fontFamily=Helvetica;fontSize=11;fontColor=default;labelBackgroundColor=default;endArrow=classic;" parent="1" source="yKHBwBAMihrBw6HAEIQY-7" target="fBkH5EgTwrjanHVilxN5-28" edge="1">
          <mxGeometry relative="1" as="geometry" />
        </mxCell>
        <mxCell id="yKHBwBAMihrBw6HAEIQY-7" value="orElse" style="shape=trapezoid;perimeter=trapezoidPerimeter;whiteSpace=wrap;html=1;fixedSize=1;fontFamily=Helvetica;fontSize=11;fontColor=default;labelBackgroundColor=default;direction=east;" parent="1" vertex="1">
          <mxGeometry x="190" y="70" width="120" height="60" as="geometry" />
        </mxCell>
        <mxCell id="dSEWYArZnNrlTCEOsxkc-1" value="c_numMergeNotFound" style="text;html=1;align=center;verticalAlign=middle;whiteSpace=wrap;rounded=0;" vertex="1" parent="1">
          <mxGeometry x="97.5" y="830" width="92.5" height="20" as="geometry" />
        </mxCell>
        <mxCell id="dSEWYArZnNrlTCEOsxkc-2" value="c_numLoopNotFound" style="text;html=1;align=center;verticalAlign=middle;whiteSpace=wrap;rounded=0;" vertex="1" parent="1">
          <mxGeometry x="87.5" width="92.5" height="20" as="geometry" />
        </mxCell>
        <mxCell id="dSEWYArZnNrlTCEOsxkc-3" value="c_mergeDetectorInfo" style="text;html=1;align=center;verticalAlign=middle;whiteSpace=wrap;rounded=0;" vertex="1" parent="1">
          <mxGeometry x="350" y="870" width="80" height="20" as="geometry" />
        </mxCell>
        <mxCell id="dSEWYArZnNrlTCEOsxkc-4" value="c_loopDetectorInfo" style="text;html=1;align=center;verticalAlign=middle;whiteSpace=wrap;rounded=0;" vertex="1" parent="1">
          <mxGeometry x="390" y="-50" width="80" height="20" as="geometry" />
        </mxCell>
      </root>
    </mxGraphModel>
  </diagram>
  <diagram id="Kqg0-zTk_If_HhA-YhqH" name="Detectors">
    <mxGraphModel dx="2261" dy="940" grid="1" gridSize="10" guides="1" tooltips="1" connect="1" arrows="1" fold="1" page="1" pageScale="1" pageWidth="827" pageHeight="1169" math="0" shadow="0">
      <root>
        <mxCell id="0" />
        <mxCell id="1" parent="0" />
        <mxCell id="FBaFgJK_dtykOZmOjSZM-1" value="" style="endArrow=classic;html=1;rounded=0;strokeColor=default;align=center;verticalAlign=middle;fontFamily=Helvetica;fontSize=11;fontColor=default;labelBackgroundColor=default;edgeStyle=orthogonalEdgeStyle;jumpStyle=arc;entryX=0;entryY=0.5;entryDx=0;entryDy=0;" parent="1" target="FBaFgJK_dtykOZmOjSZM-2" edge="1">
          <mxGeometry width="50" height="50" relative="1" as="geometry">
            <mxPoint x="20" y="500" as="sourcePoint" />
            <mxPoint x="480" y="510" as="targetPoint" />
          </mxGeometry>
        </mxCell>
        <mxCell id="L6t0bM97yTerhZjarX0I-2" style="edgeStyle=orthogonalEdgeStyle;rounded=0;orthogonalLoop=1;jettySize=auto;html=1;exitX=1;exitY=0.5;exitDx=0;exitDy=0;entryX=0;entryY=0.5;entryDx=0;entryDy=0;" edge="1" parent="1" source="FBaFgJK_dtykOZmOjSZM-2" target="L6t0bM97yTerhZjarX0I-1">
          <mxGeometry relative="1" as="geometry" />
        </mxCell>
        <mxCell id="FBaFgJK_dtykOZmOjSZM-2" value="gate&lt;div&gt;Coincidence&lt;/div&gt;&lt;div&gt;&amp;gt; 0&lt;/div&gt;" style="rhombus;whiteSpace=wrap;html=1;fontFamily=Helvetica;fontSize=11;fontColor=default;labelBackgroundColor=default;" parent="1" vertex="1">
          <mxGeometry x="224" y="350" width="116" height="60" as="geometry" />
        </mxCell>
        <mxCell id="L6t0bM97yTerhZjarX0I-4" style="edgeStyle=orthogonalEdgeStyle;rounded=0;orthogonalLoop=1;jettySize=auto;html=1;" edge="1" parent="1" source="FBaFgJK_dtykOZmOjSZM-4" target="L6t0bM97yTerhZjarX0I-3">
          <mxGeometry relative="1" as="geometry" />
        </mxCell>
        <mxCell id="FBaFgJK_dtykOZmOjSZM-4" value="gate&lt;div&gt;Coincidence&lt;/div&gt;&lt;div&gt;&amp;gt; 0&lt;/div&gt;" style="rhombus;whiteSpace=wrap;html=1;fontFamily=Helvetica;fontSize=11;fontColor=default;labelBackgroundColor=default;" parent="1" vertex="1">
          <mxGeometry x="220" y="470" width="116" height="60" as="geometry" />
        </mxCell>
        <mxCell id="L6t0bM97yTerhZjarX0I-11" style="edgeStyle=orthogonalEdgeStyle;rounded=0;orthogonalLoop=1;jettySize=auto;html=1;exitX=1;exitY=0.5;exitDx=0;exitDy=0;entryX=0.75;entryY=1;entryDx=0;entryDy=0;jumpStyle=arc;" edge="1" parent="1" source="FBaFgJK_dtykOZmOjSZM-5" target="L6t0bM97yTerhZjarX0I-12">
          <mxGeometry relative="1" as="geometry">
            <mxPoint x="760" y="620" as="targetPoint" />
          </mxGeometry>
        </mxCell>
        <mxCell id="FBaFgJK_dtykOZmOjSZM-5" value="gate" style="rhombus;whiteSpace=wrap;html=1;fontFamily=Helvetica;fontSize=11;fontColor=default;labelBackgroundColor=default;" parent="1" vertex="1">
          <mxGeometry x="224" y="585" width="116" height="60" as="geometry" />
        </mxCell>
        <mxCell id="FBaFgJK_dtykOZmOjSZM-6" value="" style="endArrow=classic;html=1;rounded=0;strokeColor=default;align=center;verticalAlign=middle;fontFamily=Helvetica;fontSize=11;fontColor=default;labelBackgroundColor=default;edgeStyle=orthogonalEdgeStyle;jumpStyle=arc;entryX=0;entryY=0.5;entryDx=0;entryDy=0;" parent="1" target="FBaFgJK_dtykOZmOjSZM-4" edge="1">
          <mxGeometry width="50" height="50" relative="1" as="geometry">
            <mxPoint x="20" y="500" as="sourcePoint" />
            <mxPoint x="440" y="460" as="targetPoint" />
          </mxGeometry>
        </mxCell>
        <mxCell id="FBaFgJK_dtykOZmOjSZM-7" value="" style="endArrow=classic;html=1;rounded=0;strokeColor=default;align=center;verticalAlign=middle;fontFamily=Helvetica;fontSize=11;fontColor=default;labelBackgroundColor=default;edgeStyle=orthogonalEdgeStyle;jumpStyle=arc;entryX=0;entryY=0.5;entryDx=0;entryDy=0;" parent="1" target="FBaFgJK_dtykOZmOjSZM-5" edge="1" source="L6t0bM97yTerhZjarX0I-5">
          <mxGeometry width="50" height="50" relative="1" as="geometry">
            <mxPoint x="20" y="500" as="sourcePoint" />
            <mxPoint x="440" y="460" as="targetPoint" />
          </mxGeometry>
        </mxCell>
        <mxCell id="L6t0bM97yTerhZjarX0I-6" style="edgeStyle=orthogonalEdgeStyle;rounded=0;orthogonalLoop=1;jettySize=auto;html=1;exitX=1;exitY=0.5;exitDx=0;exitDy=0;entryX=0.25;entryY=1;entryDx=0;entryDy=0;jumpStyle=arc;" edge="1" parent="1" source="L6t0bM97yTerhZjarX0I-1" target="L6t0bM97yTerhZjarX0I-10">
          <mxGeometry relative="1" as="geometry">
            <mxPoint x="670" y="380" as="targetPoint" />
            <Array as="points">
              <mxPoint x="630" y="380" />
              <mxPoint x="630" y="535" />
              <mxPoint x="650" y="535" />
            </Array>
          </mxGeometry>
        </mxCell>
        <mxCell id="L6t0bM97yTerhZjarX0I-16" style="edgeStyle=orthogonalEdgeStyle;rounded=0;orthogonalLoop=1;jettySize=auto;html=1;" edge="1" parent="1" source="L6t0bM97yTerhZjarX0I-1">
          <mxGeometry relative="1" as="geometry">
            <mxPoint x="1400" y="380" as="targetPoint" />
          </mxGeometry>
        </mxCell>
        <mxCell id="L6t0bM97yTerhZjarX0I-1" value="LoopDetector&lt;div&gt;Sim3&lt;/div&gt;" style="shape=process;whiteSpace=wrap;html=1;backgroundOutline=1;" vertex="1" parent="1">
          <mxGeometry x="400" y="350" width="120" height="60" as="geometry" />
        </mxCell>
        <mxCell id="L6t0bM97yTerhZjarX0I-9" style="edgeStyle=orthogonalEdgeStyle;rounded=0;orthogonalLoop=1;jettySize=auto;html=1;exitX=1;exitY=0.5;exitDx=0;exitDy=0;entryX=0.75;entryY=1;entryDx=0;entryDy=0;jumpStyle=arc;" edge="1" parent="1" source="L6t0bM97yTerhZjarX0I-3" target="L6t0bM97yTerhZjarX0I-10">
          <mxGeometry relative="1" as="geometry">
            <mxPoint x="650" y="500" as="targetPoint" />
            <Array as="points">
              <mxPoint x="610" y="500" />
              <mxPoint x="610" y="585" />
            </Array>
          </mxGeometry>
        </mxCell>
        <mxCell id="L6t0bM97yTerhZjarX0I-17" style="edgeStyle=orthogonalEdgeStyle;rounded=0;orthogonalLoop=1;jettySize=auto;html=1;jumpStyle=arc;" edge="1" parent="1" source="L6t0bM97yTerhZjarX0I-3">
          <mxGeometry relative="1" as="geometry">
            <mxPoint x="1400" y="500" as="targetPoint" />
          </mxGeometry>
        </mxCell>
        <mxCell id="L6t0bM97yTerhZjarX0I-3" value="MergeDetector&lt;div&gt;Sim3&lt;/div&gt;" style="shape=process;whiteSpace=wrap;html=1;backgroundOutline=1;" vertex="1" parent="1">
          <mxGeometry x="400" y="470" width="120" height="60" as="geometry" />
        </mxCell>
        <mxCell id="L6t0bM97yTerhZjarX0I-5" value="s_pop" style="text;html=1;align=center;verticalAlign=middle;whiteSpace=wrap;rounded=0;" vertex="1" parent="1">
          <mxGeometry x="-20" y="490" width="40" height="20" as="geometry" />
        </mxCell>
        <mxCell id="L6t0bM97yTerhZjarX0I-13" style="edgeStyle=orthogonalEdgeStyle;rounded=0;orthogonalLoop=1;jettySize=auto;html=1;exitX=0.5;exitY=0;exitDx=0;exitDy=0;entryX=0;entryY=0.5;entryDx=0;entryDy=0;" edge="1" parent="1" source="L6t0bM97yTerhZjarX0I-10" target="L6t0bM97yTerhZjarX0I-52">
          <mxGeometry relative="1" as="geometry" />
        </mxCell>
        <mxCell id="L6t0bM97yTerhZjarX0I-10" value="merge" style="shape=trapezoid;perimeter=trapezoidPerimeter;whiteSpace=wrap;html=1;fixedSize=1;direction=south;" vertex="1" parent="1">
          <mxGeometry x="660" y="510" width="50" height="100" as="geometry" />
        </mxCell>
        <mxCell id="L6t0bM97yTerhZjarX0I-15" style="edgeStyle=orthogonalEdgeStyle;rounded=0;orthogonalLoop=1;jettySize=auto;html=1;entryX=0;entryY=0.5;entryDx=0;entryDy=0;" edge="1" parent="1" source="L6t0bM97yTerhZjarX0I-12" target="L6t0bM97yTerhZjarX0I-31">
          <mxGeometry relative="1" as="geometry">
            <mxPoint x="1000" y="590" as="targetPoint" />
          </mxGeometry>
        </mxCell>
        <mxCell id="L6t0bM97yTerhZjarX0I-12" value="or_else" style="shape=trapezoid;perimeter=trapezoidPerimeter;whiteSpace=wrap;html=1;fixedSize=1;direction=south;" vertex="1" parent="1">
          <mxGeometry x="870" y="540" width="50" height="100" as="geometry" />
        </mxCell>
        <mxCell id="L6t0bM97yTerhZjarX0I-18" style="edgeStyle=orthogonalEdgeStyle;rounded=0;orthogonalLoop=1;jettySize=auto;html=1;entryX=0;entryY=0.5;entryDx=0;entryDy=0;exitX=1;exitY=0.5;exitDx=0;exitDy=0;" edge="1" parent="1" source="L6t0bM97yTerhZjarX0I-31" target="L6t0bM97yTerhZjarX0I-19">
          <mxGeometry relative="1" as="geometry">
            <mxPoint x="1160" y="590" as="targetPoint" />
            <mxPoint x="1080" y="590" as="sourcePoint" />
          </mxGeometry>
        </mxCell>
        <mxCell id="L6t0bM97yTerhZjarX0I-21" style="edgeStyle=orthogonalEdgeStyle;rounded=0;orthogonalLoop=1;jettySize=auto;html=1;entryX=0;entryY=0.5;entryDx=0;entryDy=0;exitX=1;exitY=0.5;exitDx=0;exitDy=0;" edge="1" parent="1" source="L6t0bM97yTerhZjarX0I-31" target="L6t0bM97yTerhZjarX0I-20">
          <mxGeometry relative="1" as="geometry">
            <mxPoint x="1080" y="590" as="sourcePoint" />
          </mxGeometry>
        </mxCell>
        <mxCell id="L6t0bM97yTerhZjarX0I-22" style="edgeStyle=orthogonalEdgeStyle;rounded=0;orthogonalLoop=1;jettySize=auto;html=1;exitX=1;exitY=0.5;exitDx=0;exitDy=0;" edge="1" parent="1" source="L6t0bM97yTerhZjarX0I-19">
          <mxGeometry relative="1" as="geometry">
            <mxPoint x="1400" y="555" as="targetPoint" />
          </mxGeometry>
        </mxCell>
        <mxCell id="L6t0bM97yTerhZjarX0I-19" value="LoopDetector&lt;div&gt;BoW&lt;/div&gt;" style="shape=process;whiteSpace=wrap;html=1;backgroundOutline=1;" vertex="1" parent="1">
          <mxGeometry x="1160" y="525" width="120" height="60" as="geometry" />
        </mxCell>
        <mxCell id="L6t0bM97yTerhZjarX0I-23" style="edgeStyle=orthogonalEdgeStyle;rounded=0;orthogonalLoop=1;jettySize=auto;html=1;" edge="1" parent="1" source="L6t0bM97yTerhZjarX0I-20">
          <mxGeometry relative="1" as="geometry">
            <mxPoint x="1400" y="630" as="targetPoint" />
          </mxGeometry>
        </mxCell>
        <mxCell id="L6t0bM97yTerhZjarX0I-20" value="MergeDetector&lt;div&gt;BoW&lt;/div&gt;" style="shape=process;whiteSpace=wrap;html=1;backgroundOutline=1;" vertex="1" parent="1">
          <mxGeometry x="1160" y="600" width="120" height="60" as="geometry" />
        </mxCell>
        <mxCell id="L6t0bM97yTerhZjarX0I-24" value="s_MergeBoWResult" style="text;html=1;align=center;verticalAlign=middle;whiteSpace=wrap;rounded=0;" vertex="1" parent="1">
          <mxGeometry x="1280" y="610" width="120" height="20" as="geometry" />
        </mxCell>
        <mxCell id="L6t0bM97yTerhZjarX0I-25" value="s_LoopBoWResult" style="text;html=1;align=center;verticalAlign=middle;whiteSpace=wrap;rounded=0;" vertex="1" parent="1">
          <mxGeometry x="1280" y="540" width="110" height="20" as="geometry" />
        </mxCell>
        <mxCell id="L6t0bM97yTerhZjarX0I-27" value="s_MegeSim3result" style="text;html=1;align=center;verticalAlign=middle;whiteSpace=wrap;rounded=0;" vertex="1" parent="1">
          <mxGeometry x="1300" y="470" width="100" height="20" as="geometry" />
        </mxCell>
        <mxCell id="L6t0bM97yTerhZjarX0I-28" value="s_LoopSim3result" style="text;html=1;align=center;verticalAlign=middle;whiteSpace=wrap;rounded=0;" vertex="1" parent="1">
          <mxGeometry x="1300" y="360" width="100" height="20" as="geometry" />
        </mxCell>
        <mxCell id="L6t0bM97yTerhZjarX0I-29" value="s_LoopSim3result" style="text;html=1;align=center;verticalAlign=middle;whiteSpace=wrap;rounded=0;" vertex="1" parent="1">
          <mxGeometry x="520" y="360" width="100" height="20" as="geometry" />
        </mxCell>
        <mxCell id="L6t0bM97yTerhZjarX0I-30" value="s_MegeSim3result" style="text;html=1;align=center;verticalAlign=middle;whiteSpace=wrap;rounded=0;" vertex="1" parent="1">
          <mxGeometry x="520" y="480" width="100" height="20" as="geometry" />
        </mxCell>
        <mxCell id="L6t0bM97yTerhZjarX0I-31" value="DetectNBest&lt;div&gt;Candidates&lt;/div&gt;" style="shape=process;whiteSpace=wrap;html=1;backgroundOutline=1;" vertex="1" parent="1">
          <mxGeometry x="960" y="560" width="120" height="60" as="geometry" />
        </mxCell>
        <mxCell id="L6t0bM97yTerhZjarX0I-35" style="edgeStyle=orthogonalEdgeStyle;rounded=0;orthogonalLoop=1;jettySize=auto;html=1;entryX=0.5;entryY=0;entryDx=0;entryDy=0;endArrow=diamond;endFill=0;" edge="1" parent="1" source="L6t0bM97yTerhZjarX0I-32" target="L6t0bM97yTerhZjarX0I-1">
          <mxGeometry relative="1" as="geometry" />
        </mxCell>
        <mxCell id="L6t0bM97yTerhZjarX0I-32" value="cloop_nLoopNumNotFound" style="text;html=1;align=center;verticalAlign=middle;whiteSpace=wrap;rounded=0;" vertex="1" parent="1">
          <mxGeometry x="-130" y="320" width="150" height="20" as="geometry" />
        </mxCell>
        <mxCell id="L6t0bM97yTerhZjarX0I-34" style="edgeStyle=orthogonalEdgeStyle;rounded=0;orthogonalLoop=1;jettySize=auto;html=1;entryX=0.5;entryY=0;entryDx=0;entryDy=0;endArrow=diamond;endFill=0;" edge="1" parent="1" source="L6t0bM97yTerhZjarX0I-33" target="L6t0bM97yTerhZjarX0I-3">
          <mxGeometry relative="1" as="geometry" />
        </mxCell>
        <mxCell id="L6t0bM97yTerhZjarX0I-33" value="cloop_nMergeNumNotFound" style="text;html=1;align=center;verticalAlign=middle;whiteSpace=wrap;rounded=0;" vertex="1" parent="1">
          <mxGeometry x="-140" y="440" width="160" height="20" as="geometry" />
        </mxCell>
        <mxCell id="L6t0bM97yTerhZjarX0I-45" style="edgeStyle=orthogonalEdgeStyle;shape=connector;rounded=0;jumpStyle=arc;orthogonalLoop=1;jettySize=auto;html=1;entryX=0.75;entryY=0;entryDx=0;entryDy=0;strokeColor=default;align=center;verticalAlign=middle;fontFamily=Helvetica;fontSize=11;fontColor=default;labelBackgroundColor=default;endArrow=diamond;endFill=0;" edge="1" parent="1" source="L6t0bM97yTerhZjarX0I-36" target="L6t0bM97yTerhZjarX0I-43">
          <mxGeometry relative="1" as="geometry" />
        </mxCell>
        <mxCell id="L6t0bM97yTerhZjarX0I-47" style="edgeStyle=orthogonalEdgeStyle;shape=connector;rounded=0;jumpStyle=arc;orthogonalLoop=1;jettySize=auto;html=1;entryX=0.5;entryY=1;entryDx=0;entryDy=0;strokeColor=default;align=center;verticalAlign=middle;fontFamily=Helvetica;fontSize=11;fontColor=default;labelBackgroundColor=default;endArrow=diamond;endFill=0;exitX=1;exitY=0.5;exitDx=0;exitDy=0;" edge="1" parent="1" source="L6t0bM97yTerhZjarX0I-36" target="L6t0bM97yTerhZjarX0I-1">
          <mxGeometry relative="1" as="geometry">
            <Array as="points">
              <mxPoint x="70" y="670" />
              <mxPoint x="70" y="430" />
              <mxPoint x="460" y="430" />
            </Array>
          </mxGeometry>
        </mxCell>
        <mxCell id="L6t0bM97yTerhZjarX0I-55" style="edgeStyle=orthogonalEdgeStyle;shape=connector;rounded=0;jumpStyle=arc;orthogonalLoop=1;jettySize=auto;html=1;entryX=0.5;entryY=0;entryDx=0;entryDy=0;strokeColor=default;align=center;verticalAlign=middle;fontFamily=Helvetica;fontSize=11;fontColor=default;labelBackgroundColor=default;endArrow=diamond;endFill=0;" edge="1" parent="1" source="L6t0bM97yTerhZjarX0I-36" target="L6t0bM97yTerhZjarX0I-19">
          <mxGeometry relative="1" as="geometry">
            <Array as="points">
              <mxPoint x="70" y="670" />
              <mxPoint x="70" y="430" />
              <mxPoint x="1220" y="430" />
            </Array>
          </mxGeometry>
        </mxCell>
        <mxCell id="L6t0bM97yTerhZjarX0I-36" value="cloop_loopInfo" style="text;html=1;align=center;verticalAlign=middle;whiteSpace=wrap;rounded=0;fontFamily=Helvetica;fontSize=11;fontColor=default;labelBackgroundColor=default;" vertex="1" parent="1">
          <mxGeometry x="-60" y="660" width="80" height="20" as="geometry" />
        </mxCell>
        <mxCell id="L6t0bM97yTerhZjarX0I-40" style="edgeStyle=orthogonalEdgeStyle;shape=connector;rounded=0;jumpStyle=arc;orthogonalLoop=1;jettySize=auto;html=1;entryX=0.5;entryY=1;entryDx=0;entryDy=0;strokeColor=default;align=center;verticalAlign=middle;fontFamily=Helvetica;fontSize=11;fontColor=default;labelBackgroundColor=default;endArrow=diamond;endFill=0;" edge="1" parent="1" source="L6t0bM97yTerhZjarX0I-37" target="FBaFgJK_dtykOZmOjSZM-4">
          <mxGeometry relative="1" as="geometry">
            <Array as="points">
              <mxPoint x="100" y="730" />
              <mxPoint x="100" y="560" />
              <mxPoint x="278" y="560" />
            </Array>
          </mxGeometry>
        </mxCell>
        <mxCell id="L6t0bM97yTerhZjarX0I-46" style="edgeStyle=orthogonalEdgeStyle;shape=connector;rounded=0;jumpStyle=arc;orthogonalLoop=1;jettySize=auto;html=1;entryX=0.25;entryY=0;entryDx=0;entryDy=0;strokeColor=default;align=center;verticalAlign=middle;fontFamily=Helvetica;fontSize=11;fontColor=default;labelBackgroundColor=default;endArrow=diamond;endFill=0;" edge="1" parent="1" source="L6t0bM97yTerhZjarX0I-37" target="L6t0bM97yTerhZjarX0I-43">
          <mxGeometry relative="1" as="geometry">
            <Array as="points">
              <mxPoint x="100" y="730" />
              <mxPoint x="100" y="705" />
            </Array>
          </mxGeometry>
        </mxCell>
        <mxCell id="L6t0bM97yTerhZjarX0I-48" style="edgeStyle=orthogonalEdgeStyle;shape=connector;rounded=0;jumpStyle=arc;orthogonalLoop=1;jettySize=auto;html=1;entryX=0.5;entryY=1;entryDx=0;entryDy=0;strokeColor=default;align=center;verticalAlign=middle;fontFamily=Helvetica;fontSize=11;fontColor=default;labelBackgroundColor=default;endArrow=diamond;endFill=0;" edge="1" parent="1" source="L6t0bM97yTerhZjarX0I-37" target="L6t0bM97yTerhZjarX0I-3">
          <mxGeometry relative="1" as="geometry">
            <Array as="points">
              <mxPoint x="100" y="730" />
              <mxPoint x="100" y="560" />
              <mxPoint x="460" y="560" />
            </Array>
          </mxGeometry>
        </mxCell>
        <mxCell id="L6t0bM97yTerhZjarX0I-56" style="edgeStyle=orthogonalEdgeStyle;shape=connector;rounded=0;jumpStyle=arc;orthogonalLoop=1;jettySize=auto;html=1;entryX=0.5;entryY=1;entryDx=0;entryDy=0;strokeColor=default;align=center;verticalAlign=middle;fontFamily=Helvetica;fontSize=11;fontColor=default;labelBackgroundColor=default;endArrow=diamond;endFill=0;" edge="1" parent="1" source="L6t0bM97yTerhZjarX0I-37" target="L6t0bM97yTerhZjarX0I-20">
          <mxGeometry relative="1" as="geometry" />
        </mxCell>
        <mxCell id="L6t0bM97yTerhZjarX0I-37" value="cloop_mergeInfo" style="text;html=1;align=center;verticalAlign=middle;whiteSpace=wrap;rounded=0;fontFamily=Helvetica;fontSize=11;fontColor=default;labelBackgroundColor=default;" vertex="1" parent="1">
          <mxGeometry x="-70" y="720" width="90" height="20" as="geometry" />
        </mxCell>
        <mxCell id="L6t0bM97yTerhZjarX0I-38" value="" style="endArrow=diamond;html=1;rounded=0;strokeColor=default;align=center;verticalAlign=middle;fontFamily=Helvetica;fontSize=11;fontColor=default;labelBackgroundColor=default;edgeStyle=orthogonalEdgeStyle;jumpStyle=arc;entryX=0.5;entryY=1;entryDx=0;entryDy=0;exitX=1;exitY=0.5;exitDx=0;exitDy=0;endFill=0;" edge="1" parent="1" source="L6t0bM97yTerhZjarX0I-36" target="FBaFgJK_dtykOZmOjSZM-2">
          <mxGeometry width="50" height="50" relative="1" as="geometry">
            <mxPoint x="640" y="510" as="sourcePoint" />
            <mxPoint x="690" y="460" as="targetPoint" />
            <Array as="points">
              <mxPoint x="70" y="670" />
              <mxPoint x="70" y="430" />
              <mxPoint x="282" y="430" />
            </Array>
          </mxGeometry>
        </mxCell>
        <mxCell id="L6t0bM97yTerhZjarX0I-44" style="edgeStyle=orthogonalEdgeStyle;shape=connector;rounded=0;jumpStyle=arc;orthogonalLoop=1;jettySize=auto;html=1;strokeColor=default;align=center;verticalAlign=middle;fontFamily=Helvetica;fontSize=11;fontColor=default;labelBackgroundColor=default;endArrow=diamond;entryX=0.5;entryY=1;entryDx=0;entryDy=0;endFill=0;" edge="1" parent="1" source="L6t0bM97yTerhZjarX0I-43" target="FBaFgJK_dtykOZmOjSZM-5">
          <mxGeometry relative="1" as="geometry">
            <mxPoint x="320" y="700" as="targetPoint" />
            <Array as="points">
              <mxPoint x="282" y="685" />
            </Array>
          </mxGeometry>
        </mxCell>
        <mxCell id="L6t0bM97yTerhZjarX0I-43" value="lift&lt;div&gt;sumCoincidence&lt;/div&gt;&lt;div&gt;== 0&lt;/div&gt;" style="shape=offPageConnector;whiteSpace=wrap;html=1;fontFamily=Helvetica;fontSize=11;fontColor=default;labelBackgroundColor=default;direction=north;" vertex="1" parent="1">
          <mxGeometry x="154" y="645" width="86" height="80" as="geometry" />
        </mxCell>
        <mxCell id="L6t0bM97yTerhZjarX0I-54" style="edgeStyle=orthogonalEdgeStyle;shape=connector;rounded=0;jumpStyle=arc;orthogonalLoop=1;jettySize=auto;html=1;entryX=0.25;entryY=1;entryDx=0;entryDy=0;strokeColor=default;align=center;verticalAlign=middle;fontFamily=Helvetica;fontSize=11;fontColor=default;labelBackgroundColor=default;endArrow=classic;endFill=1;" edge="1" parent="1" source="L6t0bM97yTerhZjarX0I-52" target="L6t0bM97yTerhZjarX0I-12">
          <mxGeometry relative="1" as="geometry" />
        </mxCell>
        <mxCell id="L6t0bM97yTerhZjarX0I-52" value="filter&lt;div&gt;notDetect&lt;/div&gt;" style="rhombus;whiteSpace=wrap;html=1;fontFamily=Helvetica;fontSize=11;fontColor=default;labelBackgroundColor=default;" vertex="1" parent="1">
          <mxGeometry x="740" y="530" width="80" height="60" as="geometry" />
        </mxCell>
      </root>
    </mxGraphModel>
  </diagram>
</mxfile>
